<svg width="24" height="24" viewBox="0 0 24 24" fill="none" xmlns="http://www.w3.org/2000/svg">
<path d="M21.5323 0.960022L13.2748 7.85622L14.8104 3.79206L21.5323 0.960022Z" fill="#E17726" stroke="#E17726" stroke-width="0.25" stroke-linecap="round" stroke-linejoin="round"/>
<path d="M2.48544 0.960022L10.6694 7.92061L9.2074 3.79206L2.48544 0.960022Z" fill="#E27625" stroke="#E27625" stroke-width="0.25" stroke-linecap="round" stroke-linejoin="round"/>
<path d="M18.5591 16.95L16.362 20.7383L21.0666 22.2003L22.4142 17.0328L18.5591 16.95Z" fill="#E27625" stroke="#E27625" stroke-width="0.25" stroke-linecap="round" stroke-linejoin="round"/>
<path d="M1.61145 17.0328L2.95093 22.2003L7.64733 20.7383L5.45839 16.95L1.61145 17.0328Z" fill="#E27625" stroke="#E27625" stroke-width="0.25" stroke-linecap="round" stroke-linejoin="round"/>
<path d="M7.39408 10.5503L6.08728 12.7755L10.7428 13.0146L10.5876 7.35968L7.39408 10.5503Z" fill="#E27625" stroke="#E27625" stroke-width="0.25" stroke-linecap="round" stroke-linejoin="round"/>
<path d="M16.6234 10.5504L13.3809 7.29535L13.2747 13.0146L17.9302 12.7755L16.6234 10.5504Z" fill="#E27625" stroke="#E27625" stroke-width="0.25" stroke-linecap="round" stroke-linejoin="round"/>
<path d="M7.6474 20.7383L10.4652 19.2027L8.03946 17.0695L7.6474 20.7383Z" fill="#E27625" stroke="#E27625" stroke-width="0.25" stroke-linecap="round" stroke-linejoin="round"/>
<path d="M13.5526 19.2027L16.3622 20.7383L15.9783 17.0695L13.5526 19.2027Z" fill="#E27625" stroke="#E27625" stroke-width="0.25" stroke-linecap="round" stroke-linejoin="round"/>
<path d="M16.3622 20.7384L13.5526 19.2029L13.7812 21.2625L13.7567 22.1361L16.3622 20.7384Z" fill="#D5BFB2" stroke="#D5BFB2" stroke-width="0.25" stroke-linecap="round" stroke-linejoin="round"/>
<path d="M7.6474 20.7384L10.261 22.1361L10.2447 21.2625L10.4652 19.2029L7.6474 20.7384Z" fill="#D5BFB2" stroke="#D5BFB2" stroke-width="0.25" stroke-linecap="round" stroke-linejoin="round"/>
<path d="M10.31 15.7087L7.974 14.9363L9.62383 14.0812L10.31 15.7087Z" fill="#233447" stroke="#233447" stroke-width="0.25" stroke-linecap="round" stroke-linejoin="round"/>
<path d="M13.7077 15.7087L14.3938 14.0812L16.0518 14.9363L13.7077 15.7087Z" fill="#233447" stroke="#233447" stroke-width="0.25" stroke-linecap="round" stroke-linejoin="round"/>
<path d="M7.64731 20.7383L8.05572 16.95L5.4584 17.0328L7.64731 20.7383Z" fill="#CC6228" stroke="#CC6228" stroke-width="0.25" stroke-linecap="round" stroke-linejoin="round"/>
<path d="M15.9619 16.95L16.3621 20.7383L18.5592 17.0328L15.9619 16.95Z" fill="#CC6228" stroke="#CC6228" stroke-width="0.25" stroke-linecap="round" stroke-linejoin="round"/>
<path d="M17.9302 12.7755L13.2747 13.0145L13.7076 15.7087L14.3937 14.0811L16.0517 14.9363L17.9302 12.7755Z" fill="#CC6228" stroke="#CC6228" stroke-width="0.25" stroke-linecap="round" stroke-linejoin="round"/>
<path d="M7.97399 14.9363L9.62382 14.0811L10.3099 15.7087L10.7428 13.0145L6.08728 12.7755L7.97399 14.9363Z" fill="#CC6228" stroke="#CC6228" stroke-width="0.25" stroke-linecap="round" stroke-linejoin="round"/>
<path d="M6.08743 12.7755L8.03952 17.0695L7.97414 14.9363L6.08743 12.7755Z" fill="#E27525" stroke="#E27525" stroke-width="0.25" stroke-linecap="round" stroke-linejoin="round"/>
<path d="M16.0519 14.9363L15.9784 17.0695L17.9304 12.7755L16.0519 14.9363Z" fill="#E27525" stroke="#E27525" stroke-width="0.25" stroke-linecap="round" stroke-linejoin="round"/>
<path d="M10.7431 13.0145L10.3102 15.7087L10.8573 18.8901L10.9799 14.6972L10.7431 13.0145Z" fill="#E27525" stroke="#E27525" stroke-width="0.25" stroke-linecap="round" stroke-linejoin="round"/>
<path d="M13.2748 13.0145L13.0461 14.688L13.1605 18.8901L13.7077 15.7087L13.2748 13.0145Z" fill="#E27525" stroke="#E27525" stroke-width="0.25" stroke-linecap="round" stroke-linejoin="round"/>
<path d="M13.7077 15.7088L13.1605 18.8902L13.5525 19.2028L15.9783 17.0696L16.0518 14.9363L13.7077 15.7088Z" fill="#F5841F" stroke="#F5841F" stroke-width="0.25" stroke-linecap="round" stroke-linejoin="round"/>
<path d="M7.974 14.9363L8.03938 17.0696L10.4651 19.2028L10.8572 18.8902L10.31 15.7088L7.974 14.9363Z" fill="#F5841F" stroke="#F5841F" stroke-width="0.25" stroke-linecap="round" stroke-linejoin="round"/>
<path d="M13.7568 22.136L13.7812 21.2625L13.5689 21.0602H10.4489L10.2447 21.2625L10.261 22.136L7.6474 20.7383L8.56214 21.5843L10.4162 23.0279H13.5934L15.4556 21.5843L16.3622 20.7383L13.7568 22.136Z" fill="#C0AC9D" stroke="#C0AC9D" stroke-width="0.25" stroke-linecap="round" stroke-linejoin="round"/>
<path d="M13.5525 19.2028L13.1604 18.8902H10.8571L10.4652 19.2028L10.2446 21.2625L10.4488 21.0602H13.5688L13.7812 21.2625L13.5525 19.2028Z" fill="#161616" stroke="#161616" stroke-width="0.25" stroke-linecap="round" stroke-linejoin="round"/>
<path d="M21.8834 8.30676L22.5777 4.50009L21.5322 0.960022L13.5526 7.6264L16.6235 10.5503L20.9605 11.9756L21.9161 10.7159L21.4996 10.3756L22.1611 9.69527L21.6548 9.25387L22.3164 8.68377L21.8834 8.30676Z" fill="#763E1A" stroke="#763E1A" stroke-width="0.25" stroke-linecap="round" stroke-linejoin="round"/>
<path d="M1.44 4.50009L2.14242 8.30676L1.6932 8.68377L2.36294 9.25387L1.85655 9.69527L2.51812 10.3756L2.10158 10.7159L3.05719 11.9756L7.3942 10.5503L10.4652 7.6264L2.48546 0.960022L1.44 4.50009Z" fill="#763E1A" stroke="#763E1A" stroke-width="0.25" stroke-linecap="round" stroke-linejoin="round"/>
<path d="M20.9606 11.9755L16.6236 10.5504L17.9304 12.7755L15.9784 17.0695L18.5593 17.0328H22.4144L20.9606 11.9755Z" fill="#F5841F" stroke="#F5841F" stroke-width="0.25" stroke-linecap="round" stroke-linejoin="round"/>
<path d="M7.39409 10.5504L3.05711 11.9755L1.61145 17.0328H5.45839L8.03931 17.0695L6.08729 12.7755L7.39409 10.5504Z" fill="#F5841F" stroke="#F5841F" stroke-width="0.25" stroke-linecap="round" stroke-linejoin="round"/>
<path d="M13.2748 13.0146L13.5525 7.62633L14.8103 3.79205H9.20734L10.4651 7.62633L10.7428 13.0146L10.849 14.7065L10.8572 18.8902H13.1604L13.1686 14.7065L13.2748 13.0146Z" fill="#F5841F" stroke="#F5841F" stroke-width="0.25" stroke-linecap="round" stroke-linejoin="round"/>
</svg>
